<?xml version="1.0" encoding="UTF-8" standalone="no"?>
<svg
   xmlns:dc="http://purl.org/dc/elements/1.1/"
   xmlns:cc="http://creativecommons.org/ns#"
   xmlns:rdf="http://www.w3.org/1999/02/22-rdf-syntax-ns#"
   xmlns:svg="http://www.w3.org/2000/svg"
   xmlns="http://www.w3.org/2000/svg"
   xmlns:sodipodi="http://sodipodi.sourceforge.net/DTD/sodipodi-0.dtd"
   xmlns:inkscape="http://www.inkscape.org/namespaces/inkscape"
   version="1.1"
   width="76"
   height="76"
   viewBox="0 0 76.00 76.00"
   enable-background="new 0 0 76.00 76.00"
   xml:space="preserve"
   id="svg2987"
   inkscape:version="0.48.2 r9819"
   sodipodi:docname="list.svg"><metadata
   id="metadata2995"><rdf:RDF><cc:Work
       rdf:about=""><dc:format>image/svg+xml</dc:format><dc:type
         rdf:resource="http://purl.org/dc/dcmitype/StillImage" /></cc:Work></rdf:RDF></metadata><defs
   id="defs2993" /><sodipodi:namedview
   pagecolor="#ffffff"
   bordercolor="#666666"
   borderopacity="1"
   objecttolerance="10"
   gridtolerance="10"
   guidetolerance="10"
   inkscape:pageopacity="0"
   inkscape:pageshadow="2"
   inkscape:window-width="640"
   inkscape:window-height="480"
   id="namedview2991"
   showgrid="false"
   inkscape:zoom="3.1052632"
   inkscape:cx="38"
   inkscape:cy="38"
   inkscape:window-x="0"
   inkscape:window-y="0"
   inkscape:window-maximized="0"
   inkscape:current-layer="svg2987" />
	<path
   fill="#000000"
   fill-opacity="1"
   stroke-width="0.2"
   stroke-linejoin="round"
   d="M 19,25.3333L 25.3333,25.3333L 25.3333,31.6667L 19,31.6667L 19,25.3333 Z M 19,36.4167L 25.3333,36.4167L 25.3333,42.75L 19,42.75L 19,36.4167 Z M 28.5,25.3333L 57,25.3333L 57,31.6667L 28.5,31.6667L 28.5,25.3333 Z M 28.5,36.4167L 57,36.4167L 57,42.75L 28.5,42.75L 28.5,36.4167 Z M 19,47.5L 25.3333,47.5L 25.3333,53.8333L 19,53.8333L 19,47.5 Z M 28.5,47.5L 57,47.5L 57,53.8333L 28.5,53.8333L 28.5,47.5 Z "
   id="path2989"
   style="fill:#333333" />
</svg>