<?xml version="1.0" encoding="UTF-8" standalone="no"?>
<svg
   xmlns:dc="http://purl.org/dc/elements/1.1/"
   xmlns:cc="http://creativecommons.org/ns#"
   xmlns:rdf="http://www.w3.org/1999/02/22-rdf-syntax-ns#"
   xmlns:svg="http://www.w3.org/2000/svg"
   xmlns="http://www.w3.org/2000/svg"
   xmlns:sodipodi="http://sodipodi.sourceforge.net/DTD/sodipodi-0.dtd"
   xmlns:inkscape="http://www.inkscape.org/namespaces/inkscape"
   version="1.1"
   width="76"
   height="76"
   viewBox="0 0 76.00 76.00"
   enable-background="new 0 0 76.00 76.00"
   xml:space="preserve"
   id="svg2997"
   inkscape:version="0.48.2 r9819"
   sodipodi:docname="tag.svg"><metadata
   id="metadata3005"><rdf:RDF><cc:Work
       rdf:about=""><dc:format>image/svg+xml</dc:format><dc:type
         rdf:resource="http://purl.org/dc/dcmitype/StillImage" /></cc:Work></rdf:RDF></metadata><defs
   id="defs3003" /><sodipodi:namedview
   pagecolor="#ffffff"
   bordercolor="#666666"
   borderopacity="1"
   objecttolerance="10"
   gridtolerance="10"
   guidetolerance="10"
   inkscape:pageopacity="0"
   inkscape:pageshadow="2"
   inkscape:window-width="640"
   inkscape:window-height="480"
   id="namedview3001"
   showgrid="false"
   inkscape:zoom="3.1052632"
   inkscape:cx="38"
   inkscape:cy="38"
   inkscape:window-x="0"
   inkscape:window-y="0"
   inkscape:window-maximized="0"
   inkscape:current-layer="svg2997" />
	<path
   fill="#000000"
   fill-opacity="1"
   stroke-width="0.2"
   stroke-linejoin="round"
   d="M 24.5416,19L 33.25,19L 55.4167,41.1667C 56.6533,42.4033 56.6533,44.4083 55.4167,45.645L 45.645,55.4167C 44.4084,56.6533 42.4033,56.6533 41.1667,55.4167L 19,33.25L 19,24.5417C 19,22.6945 19,20.8472 19.9236,19.9236C 20.8472,19 22.6944,19 24.5416,19 Z M 26.9167,23.75C 25.1678,23.75 23.75,25.1678 23.75,26.9167C 23.75,28.6656 25.1678,30.0833 26.9167,30.0833C 28.6656,30.0833 30.0833,28.6656 30.0833,26.9167C 30.0833,25.1678 28.6656,23.75 26.9167,23.75 Z "
   id="path2999"
   style="fill:#333333" />
</svg>