<?xml version="1.0" encoding="UTF-8" standalone="no"?>
<!-- Created with Inkscape (http://www.inkscape.org/) -->

<svg
   xmlns:dc="http://purl.org/dc/elements/1.1/"
   xmlns:cc="http://creativecommons.org/ns#"
   xmlns:rdf="http://www.w3.org/1999/02/22-rdf-syntax-ns#"
   xmlns:svg="http://www.w3.org/2000/svg"
   xmlns="http://www.w3.org/2000/svg"
   xmlns:sodipodi="http://sodipodi.sourceforge.net/DTD/sodipodi-0.dtd"
   xmlns:inkscape="http://www.inkscape.org/namespaces/inkscape"
   width="20.000999"
   height="28"
   id="svg7365"
   version="1.1"
   inkscape:version="0.48.2 r9819"
   sodipodi:docname="trash.svg">
  <defs
     id="defs7367" />
  <sodipodi:namedview
     id="base"
     pagecolor="#ffffff"
     bordercolor="#666666"
     borderopacity="1.0"
     inkscape:pageopacity="0.0"
     inkscape:pageshadow="2"
     inkscape:zoom="2.8"
     inkscape:cx="-37.259343"
     inkscape:cy="33.61146"
     inkscape:document-units="px"
     inkscape:current-layer="bin"
     showgrid="false"
     fit-margin-top="0"
     fit-margin-left="0"
     fit-margin-right="0"
     fit-margin-bottom="0"
     inkscape:window-width="1002"
     inkscape:window-height="535"
     inkscape:window-x="20"
     inkscape:window-y="20"
     inkscape:window-maximized="0" />
  <metadata
     id="metadata7370">
    <rdf:RDF>
      <cc:Work
         rdf:about="">
        <dc:format>image/svg+xml</dc:format>
        <dc:type
           rdf:resource="http://purl.org/dc/dcmitype/StillImage" />
        <dc:title></dc:title>
      </cc:Work>
    </rdf:RDF>
  </metadata>
  <g
     inkscape:label="Layer 1"
     inkscape:groupmode="layer"
     id="layer1"
     transform="translate(-364.9995,-518.36218)">
    <g
       transform="translate(14.9995,414.36218)"
       id="bin">
      <g
         style="opacity:0.29999999999999999;fill:#999999;fill-opacity:1"
         id="g2577">
        <path
           inkscape:connector-curvature="0"
           id="path2579"
           d="m 356,128.5 c 0,0.275 -0.225,0.5 -0.5,0.5 h -1 c -0.275,0 -0.5,-0.225 -0.5,-0.5 v -14 c 0,-0.275 0.225,-0.5 0.5,-0.5 h 1 c 0.275,0 0.5,0.225 0.5,0.5 v 14 z m 5,0 c 0,0.275 -0.225,0.5 -0.5,0.5 h -1 c -0.275,0 -0.5,-0.225 -0.5,-0.5 v -14 c 0,-0.275 0.225,-0.5 0.5,-0.5 h 1 c 0.275,0 0.5,0.225 0.5,0.5 v 14 z m 5,0 c 0,0.275 -0.225,0.5 -0.5,0.5 h -1 c -0.275,0 -0.5,-0.225 -0.5,-0.5 v -14 c 0,-0.275 0.225,-0.5 0.5,-0.5 h 1 c 0.275,0 0.5,0.225 0.5,0.5 v 14 z"
           style="fill:#999999;fill-opacity:1" />
      </g>
      <g
         id="g2581"
         style="fill:#999999;fill-opacity:1">
        <path
           inkscape:connector-curvature="0"
           id="path2583"
           d="M 368.294,111 H 351.5 c -0.39,0 -0.5,0.176 -0.5,0.5 v 20.174 c 0,0 0.11,0.326 0.5,0.326 h 16.794 c 0.39,0 0.706,-0.176 0.706,-0.5 V 111.413 C 369,111.089 368.684,111 368.294,111 z M 356,128.5 c 0,0.276 -0.224,0.5 -0.5,0.5 h -1 c -0.276,0 -0.5,-0.224 -0.5,-0.5 v -14 c 0,-0.276 0.224,-0.5 0.5,-0.5 h 1 c 0.276,0 0.5,0.224 0.5,0.5 v 14 z m 5,0 c 0,0.275 -0.225,0.5 -0.5,0.5 h -1 c -0.275,0 -0.5,-0.225 -0.5,-0.5 v -14 c 0,-0.275 0.225,-0.5 0.5,-0.5 h 1 c 0.275,0 0.5,0.225 0.5,0.5 v 14 z m 5,0 c 0,0.276 -0.224,0.5 -0.5,0.5 h -1 c -0.276,0 -0.5,-0.224 -0.5,-0.5 v -14 c 0,-0.276 0.224,-0.5 0.5,-0.5 h 1 c 0.276,0 0.5,0.224 0.5,0.5 v 14 z"
           style="fill:#999999;fill-opacity:1" />
      </g>
      <g
         id="g2585"
         style="fill:#999999;fill-opacity:1">
        <path
           inkscape:connector-curvature="0"
           id="path2587"
           d="m 369.5,108 h -5.5 -2 -0.5 -3 -0.458 -0.042 -2 -1 -4.5 c -0.275,0 -0.5,0.225 -0.5,0.5 v 1 c 0,0.275 0.225,0.5 0.5,0.5 h 6.513 5.975 6.513 c 0.275,0 0.5,-0.225 0.5,-0.5 v -1 C 370,108.225 369.775,108 369.5,108 z"
           style="fill:#999999;fill-opacity:1" />
      </g>
      <g
         id="g2589"
         style="fill:#999999;fill-opacity:1">
        <path
           inkscape:connector-curvature="0"
           id="path2591"
           d="m 362,104 h -4 c -1.1,0 -2,0.9 -2,2 v 2 h 2 v -2 h 4 v 2 h 2 v -2 c 0,-1.1 -0.9,-2 -2,-2 z"
           style="fill:#999999;fill-opacity:1" />
      </g>
    </g>
  </g>
</svg>
