<?xml version="1.0" encoding="utf-8"?>
<!-- Generator: Adobe Illustrator 17.0.0, SVG Export Plug-In . SVG Version: 6.00 Build 0)  -->
<!DOCTYPE svg PUBLIC "-//W3C//DTD SVG 1.1//EN" "http://www.w3.org/Graphics/SVG/1.1/DTD/svg11.dtd">
<svg version="1.1" id="Layer_1" xmlns="http://www.w3.org/2000/svg" xmlns:xlink="http://www.w3.org/1999/xlink" x="0px" y="0px"
	 width="20px" height="20px" viewBox="0 0 20 20" enable-background="new 0 0 20 20" xml:space="preserve">
<g id="plus_2_">
	<path id="plus_1_" fill="#010101" d="M20,8.5v3c0,0.3-0.2,0.5-0.5,0.5H12v7.5c0,0.3-0.2,0.5-0.5,0.5h-3C8.2,20,8,19.7,8,19.5V12
		H0.5C0.2,12,0,11.7,0,11.5v-3C0,8.2,0.2,8,0.5,8H8V0.5C8,0.2,8.2,0,8.5,0h3C11.8,0,12,0.2,12,0.5V8h7.5C19.8,8,20,8.2,20,8.5z"/>
</g>
</svg>
