<?xml version="1.0" encoding="utf-8"?>
<!-- Generator: Adobe Illustrator 17.0.0, SVG Export Plug-In . SVG Version: 6.00 Build 0)  -->
<!DOCTYPE svg PUBLIC "-//W3C//DTD SVG 1.1//EN" "http://www.w3.org/Graphics/SVG/1.1/DTD/svg11.dtd">
<svg version="1.1" id="Layer_1" xmlns="http://www.w3.org/2000/svg" xmlns:xlink="http://www.w3.org/1999/xlink" x="0px" y="0px"
	 width="76px" height="76px" viewBox="0 0 76 76" enable-background="new 0 0 76 76" xml:space="preserve">
<path fill="#333333" d="M38,29.688c3.167-10.688,17.417-4.75,17.417-4.75v1.979v1.159l3.167-0.763v24.146
	c0,0-17.417,0.792-20.583,6.333c-3.167-5.542-20.583-6.333-20.583-6.333V27.312l3.167,0.763v-1.159v-1.979
	C20.583,24.938,34.833,19,38,29.688z M53.833,47.125V27.362c-4.75-0.445-9.5-3.612-15.042,3.974v20.879
	C41.517,48.806,49.41,48.428,53.833,47.125z M22.167,27.362v19.763c4.424,1.303,12.316,1.68,15.042,5.09V31.336
	C31.667,23.75,26.917,26.917,22.167,27.362z"/>
</svg>
