<?xml version="1.0" encoding="utf-8"?>
<!-- Generator: Adobe Illustrator 17.0.0, SVG Export Plug-In . SVG Version: 6.00 Build 0)  -->
<!DOCTYPE svg PUBLIC "-//W3C//DTD SVG 1.1//EN" "http://www.w3.org/Graphics/SVG/1.1/DTD/svg11.dtd">
<svg version="1.1" id="Layer_1" xmlns="http://www.w3.org/2000/svg" xmlns:xlink="http://www.w3.org/1999/xlink" x="0px" y="0px"
	 width="23.994px" height="24.182px" viewBox="0 0 23.994 24.182" enable-background="new 0 0 23.994 24.182" xml:space="preserve">
<g id="history_1_">
	<path fill="#010101" d="M17.211,8.285l-3.268,3.27c0.037,0.153,0.063,0.314,0.063,0.479c0,1.104-0.895,2.006-2,2.006
		c-0.748,0-1.393-0.512-1.736-1.012H7.506c-0.275,0-0.5-0.249-0.5-0.523v-0.953c0-0.274,0.225-0.523,0.5-0.523h2.764
		c0.344-0.5,0.988-1.012,1.736-1.012c0.197,0,0.385,0.049,0.565,0.102l3.238-3.237c0.194-0.194,0.513-0.194,0.707,0l0.694,0.696
		C17.406,7.771,17.406,8.09,17.211,8.285z M23.797,14.027c0.115-1,0.197-1.334,0.197-2.018c0-6.618-5.383-12.01-12-12.01
		S0,5.377,0,11.996C0,18.611,5.006,23.99,12.006,23.99v-0.002c2-0.006,4.509-0.643,6.527-1.961l0.057-0.039l1.476,2.046
		c0.162,0.224,0.361,0.189,0.442-0.073l2.205-6.439c0.082-0.263-0.077-0.48-0.353-0.486l-6.835,0.002
		c-0.276-0.006-0.37,0.174-0.21,0.396l1.515,2.12c-1.495,0.961-2.825,1.424-4.825,1.431v0.008c-5-0.001-9.008-4.03-9.006-9.001
		c0-4.971,4.027-9,8.998-9c4.97,0,8.998,4.048,8.998,9.019c0,0.688-0.092,1.018-0.24,2.018H23.797z"/>
</g>
</svg>
