<?xml version="1.0" encoding="UTF-8" standalone="no"?>
<!-- Created with Inkscape (http://www.inkscape.org/) -->

<svg
   xmlns:dc="http://purl.org/dc/elements/1.1/"
   xmlns:cc="http://creativecommons.org/ns#"
   xmlns:rdf="http://www.w3.org/1999/02/22-rdf-syntax-ns#"
   xmlns:svg="http://www.w3.org/2000/svg"
   xmlns="http://www.w3.org/2000/svg"
   xmlns:sodipodi="http://sodipodi.sourceforge.net/DTD/sodipodi-0.dtd"
   xmlns:inkscape="http://www.inkscape.org/namespaces/inkscape"
   width="48"
   height="48"
   id="svg2"
   version="1.1"
   inkscape:version="0.48.4 r9939"
   sodipodi:docname="sp-sd-icon.svg"
   inkscape:export-filename="/media/Data/Main/Visuals/Icons/Springseed/leaf/480.png"
   inkscape:export-xdpi="900"
   inkscape:export-ydpi="900">
  <defs
     id="defs4">
    <filter
       inkscape:collect="always"
       id="filter5008"
       x="-0.18514712"
       width="1.3702942"
       y="-0.17513132"
       height="1.3502626">
      <feGaussianBlur
         inkscape:collect="always"
         stdDeviation="1.8863686"
         id="feGaussianBlur5010" />
    </filter>
    <filter
       inkscape:collect="always"
       id="filter3847"
       x="-0.18140888"
       width="1.3628178"
       y="-0.17861283"
       height="1.3572257">
      <feGaussianBlur
         inkscape:collect="always"
         stdDeviation="1.9238686"
         id="feGaussianBlur3849" />
    </filter>
  </defs>
  <sodipodi:namedview
     id="base"
     pagecolor="#ffffff"
     bordercolor="#666666"
     borderopacity="1.0"
     inkscape:pageopacity="0.0"
     inkscape:pageshadow="2"
     inkscape:zoom="14.747603"
     inkscape:cx="24.743141"
     inkscape:cy="20.950464"
     inkscape:document-units="px"
     inkscape:current-layer="layer1"
     showgrid="true"
     inkscape:window-width="1366"
     inkscape:window-height="712"
     inkscape:window-x="0"
     inkscape:window-y="29"
     inkscape:window-maximized="1">
    <inkscape:grid
       type="xygrid"
       id="grid3755"
       empspacing="5"
       visible="true"
       enabled="true"
       snapvisiblegridlinesonly="true" />
  </sodipodi:namedview>
  <metadata
     id="metadata7">
    <rdf:RDF>
      <cc:Work
         rdf:about="">
        <dc:format>image/svg+xml</dc:format>
        <dc:type
           rdf:resource="http://purl.org/dc/dcmitype/StillImage" />
        <dc:title />
      </cc:Work>
    </rdf:RDF>
  </metadata>
  <g
     inkscape:label="Layer 1"
     inkscape:groupmode="layer"
     id="layer1"
     transform="translate(0,-1004.3622)">
    <path
       style="opacity:0.05;fill:#000000;fill-opacity:1;stroke:none"
       d="M 7.28125,1005.3622 C 3.8061592,1005.3622 1,1008.1684 1,1011.6435 l 0,33.4375 c 0,3.475 2.8061592,6.2812 6.28125,6.2812 l 33.4375,0 c 3.475091,0 6.28125,-2.8062 6.28125,-6.2812 l 0,-33.4375 c 0,-3.4751 -2.806159,-6.2813 -6.28125,-6.2813 l -33.4375,0 z m 0.1875,0.25 33.0625,0 c 3.437318,0 6.21875,2.7814 6.21875,6.2188 l 0,33.0625 c 0,3.4373 -2.781432,6.2187 -6.21875,6.2187 l -33.0625,0 c -3.4373179,0 -6.21875,-2.7814 -6.21875,-6.2187 l 0,-33.0625 c 0,-3.4374 2.7814321,-6.2188 6.21875,-6.2188 z"
       id="rect3768"
       inkscape:connector-curvature="0" />
    <path
       style="opacity:0.1;fill:#000000;fill-opacity:1;stroke:none"
       d="M 7.46875 1.25 C 4.0314321 1.25 1.25 4.0314321 1.25 7.46875 L 1.25 40.53125 C 1.25 43.968568 4.0314321 46.75 7.46875 46.75 L 40.53125 46.75 C 43.968568 46.75 46.75 43.968568 46.75 40.53125 L 46.75 7.46875 C 46.75 4.0314321 43.968568 1.25 40.53125 1.25 L 7.46875 1.25 z M 7.625 1.5 L 40.375 1.5 C 43.774545 1.5 46.5 4.2254546 46.5 7.625 L 46.5 40.375 C 46.5 43.774545 43.774545 46.5 40.375 46.5 L 7.625 46.5 C 4.2254546 46.5 1.5 43.774545 1.5 40.375 L 1.5 7.625 C 1.5 4.2254546 4.2254546 1.5 7.625 1.5 z "
       id="rect3766"
       transform="translate(0,1004.3622)" />
    <path
       style="opacity:0.2;fill:#000000;fill-opacity:1;stroke:none"
       d="M 7.625 1.5 C 4.2254546 1.5 1.5 4.2254546 1.5 7.625 L 1.5 40.375 C 1.5 43.774545 4.2254546 46.5 7.625 46.5 L 40.375 46.5 C 43.774545 46.5 46.5 43.774545 46.5 40.375 L 46.5 7.625 C 46.5 4.2254546 43.774545 1.5 40.375 1.5 L 7.625 1.5 z M 7.71875 1.625 L 40.28125 1.625 C 43.661909 1.625 46.375 4.338091 46.375 7.71875 L 46.375 40.28125 C 46.375 43.661909 43.661909 46.375 40.28125 46.375 L 7.71875 46.375 C 4.338091 46.375 1.625 43.661909 1.625 40.28125 L 1.625 7.71875 C 1.625 4.338091 4.338091 1.625 7.71875 1.625 z "
       id="rect3764"
       transform="translate(0,1004.3622)" />
    <path
       style="opacity:0.3;fill:#000000;fill-opacity:1;stroke:none"
       d="M 7.71875 1.625 C 4.338091 1.625 1.625 4.338091 1.625 7.71875 L 1.625 40.28125 C 1.625 43.661909 4.338091 46.375 7.71875 46.375 L 40.28125 46.375 C 43.661909 46.375 46.375 43.661909 46.375 40.28125 L 46.375 7.71875 C 46.375 4.338091 43.661909 1.625 40.28125 1.625 L 7.71875 1.625 z M 7.8125 1.75 L 40.1875 1.75 C 43.549273 1.75 46.25 4.4507272 46.25 7.8125 L 46.25 40.1875 C 46.25 43.549273 43.549273 46.25 40.1875 46.25 L 7.8125 46.25 C 4.4507272 46.25 1.75 43.549273 1.75 40.1875 L 1.75 7.8125 C 1.75 4.4507272 4.4507272 1.75 7.8125 1.75 z "
       id="rect3762"
       transform="translate(0,1004.3622)" />
    <path
       style="opacity:0.4;fill:#000000;fill-opacity:1;stroke:none"
       d="M 7.8125 1.75 C 4.4507272 1.75 1.75 4.4507272 1.75 7.8125 L 1.75 40.1875 C 1.75 43.549273 4.4507272 46.25 7.8125 46.25 L 40.1875 46.25 C 43.549273 46.25 46.25 43.549273 46.25 40.1875 L 46.25 7.8125 C 46.25 4.4507272 43.549273 1.75 40.1875 1.75 L 7.8125 1.75 z M 7.90625 1.875 L 40.09375 1.875 C 43.436636 1.875 46.125 4.5633636 46.125 7.90625 L 46.125 40.09375 C 46.125 43.436636 43.436636 46.125 40.09375 46.125 L 7.90625 46.125 C 4.5633636 46.125 1.875 43.436636 1.875 40.09375 L 1.875 7.90625 C 1.875 4.5633636 4.5633636 1.875 7.90625 1.875 z "
       transform="translate(0,1004.3622)"
       id="rect2991" />
    <rect
       ry="6.034091"
       rx="6.034091"
       y="1006.2372"
       x="1.875"
       height="44.25"
       width="44.25"
       id="rect3759"
       style="opacity:0.5;fill:#000000;fill-opacity:1;stroke:none" />
    <rect
       style="fill:#3b3a3f;fill-opacity:1;stroke:none"
       id="rect2985"
       width="44"
       height="44"
       x="2"
       y="1006.3622"
       rx="6"
       ry="6" />
    <g
       id="g3069"
       style="fill:#000000;fill-opacity:1;opacity:0.50000000000000000;filter:url(#filter3847)">
      <path
         style="fill:#000000;fill-opacity:1;stroke:none"
         d="m 37.409336,1014.5114 c -0.06703,0.7852 -0.71313,4.0751 -6.71875,6.2812 -13.720491,5.7087 -7.238196,12.8525 -7.238196,12.8525 1.812689,-4.9156 3.057492,-8.8398 7.953413,-10.5049 1,0.4995 1.129314,0.3725 0.378533,1.0904 -3.006223,2.7765 -4.682868,5.95 -6.4375,9.5625 9.672091,0.2483 12.500501,-11.5215 12.0625,-19.281 z"
         id="path3071"
         inkscape:connector-curvature="0"
         sodipodi:nodetypes="cccccccc" />
      <path
         inkscape:connector-curvature="0"
         id="path3073"
         d="m 20,1040.3622 c -2,-1 -8,-12.6237 -8,-13 0,-1 3.442736,0.058 4,1 1.392064,1.8913 2.909101,5.9502 4,5 1,-1 0.675339,-2.757 1.859358,-5.2089 1.122211,-2.7815 5.058186,-4.0429 1.595965,5.466 C 20.494232,1039.9999 21,1040.3622 20,1040.3622 z"
         style="fill:#000000;fill-opacity:1"
         sodipodi:nodetypes="csccccc" />
    </g>
    <g
       id="g4942">
      <path
         sodipodi:nodetypes="cccccccc"
         inkscape:connector-curvature="0"
         id="path4670"
         d="m 37.409336,1014.5114 c -0.06703,0.7852 -0.71313,4.0751 -6.71875,6.2812 -13.720491,5.7087 -7.238196,12.8525 -7.238196,12.8525 1.812689,-4.9156 3.057492,-8.8398 7.953413,-10.5049 1,0.4995 1.129314,0.3725 0.378533,1.0904 -3.006223,2.7765 -4.682868,5.95 -6.4375,9.5625 9.672091,0.2483 12.500501,-11.5215 12.0625,-19.281 z"
         style="fill:#00ce9b;fill-opacity:1;stroke:none" />
      <path
         sodipodi:nodetypes="csccccc"
         style="fill:#00ce9b;fill-opacity:1"
         d="m 20,1040.3622 c -2,-1 -8,-12.6237 -8,-13 0,-1 3.442736,0.058 4,1 1.392064,1.8913 2.909101,5.9502 4,5 1,-1 0.675339,-2.757 1.859358,-5.2089 1.122211,-2.7815 5.058186,-4.0429 1.595965,5.466 C 20.494232,1039.9999 21,1040.3622 20,1040.3622 z"
         id="path3881"
         inkscape:connector-curvature="0" />
    </g>
  </g>
</svg>
