<?xml version="1.0" encoding="utf-8"?>
<!-- Generator: Adobe Illustrator 17.0.0, SVG Export Plug-In . SVG Version: 6.00 Build 0)  -->
<!DOCTYPE svg PUBLIC "-//W3C//DTD SVG 1.1//EN" "http://www.w3.org/Graphics/SVG/1.1/DTD/svg11.dtd">
<svg version="1.1" id="Layer_1" xmlns="http://www.w3.org/2000/svg" xmlns:xlink="http://www.w3.org/1999/xlink" x="0px" y="0px"
	 width="23.85px" height="20.85px" viewBox="0 0 23.85 20.85" enable-background="new 0 0 23.85 20.85" xml:space="preserve">
<g id="edit">
	<path fill="#CCCCCC" d="M16,13.55v4.3c0,0.5-0.5,1-1,1H3c-0.5,0-1-0.5-1-1v-12c0-0.5,0.5-1,1-1h10.3l1.8-1.8
		c-0.4-0.1-0.7-0.2-1.2-0.2H4c-2.2,0-4,1.8-4,4v10c0,2.2,1.8,4,4,4h10c2.2,0,4-1.8,4-4v-5.3L16,13.55z"/>
	<path fill="#CCCCCC" d="M23.7,2.35l-2.2-2.2c-0.2-0.2-0.5-0.2-0.7,0l-1.4,1.4l2.9,2.9l1.4-1.4C23.9,2.85,23.9,2.55,23.7,2.35z"/>
	<path fill="#CCCCCC" d="M11.3,15.35l-2.8-2.8l-1.6,4.2c-0.1,0.3,0,0.4,0.3,0.3L11.3,15.35z"/>
	
		<rect x="13.364" y="2.071" transform="matrix(-0.7071 -0.7071 0.7071 -0.7071 20.2887 25.4463)" fill="#CCCCCC" width="4.1" height="12.9"/>
</g>
</svg>
