<?xml version="1.0" encoding="UTF-8" standalone="no"?>
<svg
   xmlns:dc="http://purl.org/dc/elements/1.1/"
   xmlns:cc="http://creativecommons.org/ns#"
   xmlns:rdf="http://www.w3.org/1999/02/22-rdf-syntax-ns#"
   xmlns:svg="http://www.w3.org/2000/svg"
   xmlns="http://www.w3.org/2000/svg"
   xmlns:sodipodi="http://sodipodi.sourceforge.net/DTD/sodipodi-0.dtd"
   xmlns:inkscape="http://www.inkscape.org/namespaces/inkscape"
   version="1.1"
   width="34.833401"
   height="41.166599"
   viewBox="0 0 34.833401 41.166599"
   enable-background="new 0 0 76.00 76.00"
   xml:space="preserve"
   id="svg2"
   inkscape:version="0.48.2 r9819"
   sodipodi:docname="radar.svg"><metadata
   id="metadata10"><rdf:RDF><cc:Work
       rdf:about=""><dc:format>image/svg+xml</dc:format><dc:type
         rdf:resource="http://purl.org/dc/dcmitype/StillImage" /></cc:Work></rdf:RDF></metadata><defs
   id="defs8" /><sodipodi:namedview
   pagecolor="#ffffff"
   bordercolor="#666666"
   borderopacity="1"
   objecttolerance="10"
   gridtolerance="10"
   guidetolerance="10"
   inkscape:pageopacity="0"
   inkscape:pageshadow="2"
   inkscape:window-width="640"
   inkscape:window-height="480"
   id="namedview6"
   showgrid="false"
   fit-margin-top="0"
   fit-margin-left="0"
   fit-margin-right="0"
   fit-margin-bottom="0"
   inkscape:zoom="3.1052632"
   inkscape:cx="17.4167"
   inkscape:cy="20.5833"
   inkscape:window-x="0"
   inkscape:window-y="0"
   inkscape:window-maximized="0"
   inkscape:current-layer="svg2" />
	<path
   d="m 17.4167,3.1666 c 4.9908,0 9.4912,2.0992 12.6667,5.4627 l 0,-8.6293 4.7499,4.75 10e-5,12.6666 -12.6667,0 -4.75,-4.75 8.8512,0 C 24.0935,10.2372 20.9337,8.7083 17.4167,8.7083 11.3952,8.7083 6.4204,13.1901 5.6463,19 L 0.071,19 C 0.871,10.123 8.3315,3.1666 17.4167,3.1666 z m 0,29.2917 c 6.0215,0 10.9963,-4.4818 11.7703,-10.2917 l 5.5754,0 C 33.9624,31.0436 26.5019,38 17.4167,38 12.4259,38 7.9255,35.9008 4.75,32.5373 l 0,8.6293 L 0,36.4166 0,23.75 l 12.6667,0 4.75,4.75 -8.8513,0 c 2.1744,2.4294 5.3343,3.9583 8.8513,3.9583 z"
   id="path4"
   inkscape:connector-curvature="0"
   style="fill:#000000;fill-opacity:1;stroke-width:0.2;stroke-linejoin:round" />
</svg>