<?xml version="1.0" encoding="UTF-8" standalone="no"?>
<!-- Created with Inkscape (http://www.inkscape.org/) -->

<svg
   xmlns:dc="http://purl.org/dc/elements/1.1/"
   xmlns:cc="http://creativecommons.org/ns#"
   xmlns:rdf="http://www.w3.org/1999/02/22-rdf-syntax-ns#"
   xmlns:svg="http://www.w3.org/2000/svg"
   xmlns="http://www.w3.org/2000/svg"
   version="1.1"
   width="34.833401"
   height="41.166599"
   viewBox="0 0 34.833401 41.166599"
   id="svg2"
   xml:space="preserve"><metadata
   id="metadata10"><rdf:RDF><cc:Work
       rdf:about=""><dc:format>image/svg+xml</dc:format><dc:type
         rdf:resource="http://purl.org/dc/dcmitype/StillImage" /><dc:title></dc:title></cc:Work></rdf:RDF></metadata><defs
   id="defs8" />
	
<path
   d="M 17.416699,-2.0071068e-4 C 8.779216,-2.0071068e-4 1.6452683,7.4050183 0.27233318,17.152716 l 5.98692082,0 C 7.550026,11.237331 12.008331,6.8609663 17.416699,6.8609663 c 3.216437,0 6.086024,1.574912 8.163986,4.0738177 l -5.261235,6.217932 8.254696,0 5.986921,0 0.272134,0 0,-17.15291671068 L 29.753386,6.0033203 C 26.610894,2.2825123 22.22834,-2.0071068e-4 17.416699,-2.0071068e-4 Z M 2.00425e-4,24.013883 l 0,17.152917 L 5.080013,35.163279 c 3.142495,3.720807 7.525045,6.003521 12.336686,6.003521 8.637483,0 15.771428,-7.405223 17.144368,-17.152917 l -5.986921,0 c -1.290771,5.915386 -5.749079,10.29175 -11.157447,10.29175 -3.216436,0 -6.086021,-1.574916 -8.1639834,-4.073818 l 5.2612334,-6.217932 -8.254695,0 -5.98692082,0 -0.272132755,0 z"
   id="path3809"
   style="color:#000000;fill:#000000;fill-opacity:1;fill-rule:nonzero;stroke:none;stroke-width:1;marker:none;visibility:visible;display:block;overflow:visible;enable-background:new" /></svg>