<?xml version="1.0" encoding="UTF-8" standalone="no"?>
<!-- Created with Inkscape (http://www.inkscape.org/) -->

<svg
   xmlns:dc="http://purl.org/dc/elements/1.1/"
   xmlns:cc="http://creativecommons.org/ns#"
   xmlns:rdf="http://www.w3.org/1999/02/22-rdf-syntax-ns#"
   xmlns:svg="http://www.w3.org/2000/svg"
   xmlns="http://www.w3.org/2000/svg"
   version="1.1"
   width="32"
   height="32"
   id="svg8631">
  <defs
     id="defs8633" />
  <metadata
     id="metadata8636">
    <rdf:RDF>
      <cc:Work
         rdf:about="">
        <dc:format>image/svg+xml</dc:format>
        <dc:type
           rdf:resource="http://purl.org/dc/dcmitype/StillImage" />
        <dc:title></dc:title>
      </cc:Work>
    </rdf:RDF>
  </metadata>
  <g
     id="layer1">
    <path
       d="m 16.074643,0.37472386 c -0.84371,0 -1.665704,0.0851448 -2.47344,0.2126654 L 12.730313,4.7847256 C 11.669798,5.0971602 10.675256,5.5558532 9.762189,6.1346111 L 6.00019,4.0196928 C 5.0025543,4.8504973 4.1203203,5.8082177 3.3549441,6.8582966 l 2.357917,3.5829484 c -0.5164944,0.945243 -0.9019806,1.971578 -1.1434158,3.051254 l -4.15300592,1.154944 c -0.0417078,0.465771 -0.0711308,0.935308 -0.0711308,1.411907 0,0.84139 0.0853872,1.660897 0.21328616,2.466417 l 4.20928876,0.868416 c 0.3126872,1.056356 0.7715186,2.046983 1.3507567,2.956748 l -2.1209257,3.754265 c 0.8333524,0.995016 1.7962721,1.874412 2.8496293,2.637735 l 3.5901932,-2.348256 c 0.948557,0.515631 1.979316,0.899221 3.062916,1.140152 l 1.15526,4.138264 c 0.468052,0.04175 0.939958,0.07092 1.4189,0.07092 0.842802,0 1.66358,-0.08545 2.470468,-0.212666 l 0.870888,-4.191423 c 1.061988,-0.312238 2.056832,-0.773592 2.971098,-1.35285 l 3.759026,2.114919 c 0.998016,-0.831123 1.882646,-1.79099 2.648219,-2.841537 l -2.354959,-3.57705 c 0.517556,-0.946681 0.901828,-1.975617 1.143416,-3.057168 l 4.147075,-1.151981 c 0.04186,-0.466724 0.07402,-0.937273 0.07402,-1.41487 0,-0.840318 -0.08568,-1.658934 -0.21327,-2.463467 l -4.206339,-0.868396 c -0.31334,-1.058518 -0.772824,-2.0514 -1.35373,-2.962661 L 28.148509,6.0165124 C 27.315187,5.0215431 26.355103,4.1390921 25.301821,3.3758135 L 21.711629,5.7270351 C 20.762875,5.2115536 19.732509,4.8275702 18.648713,4.586866 L 17.490495,0.44860173 c -0.467112,-0.0415894 -0.937956,-0.0738022 -1.415928,-0.0738022 z m 0,8.62802714 c 3.90913,0 7.079666,3.15857 7.079666,7.056599 0,3.898044 -3.170536,7.059562 -7.079666,7.059562 -3.909144,0 -7.076708,-3.161518 -7.076708,-7.059562 0,-3.898029 3.167564,-7.056599 7.076708,-7.056599 z"
       id="path3234"
       style="fill:#000000;fill-opacity:1" />
    <path
       d="m 330.76923,528.88739 a 3.5809019,3.5809019 0 1 1 -7.16181,0 3.5809019,3.5809019 0 1 1 7.16181,0 z"
       transform="matrix(1.0588447,0,0,1.0558382,-330.36704,-542.36011)"
       id="path8565"
       style="fill:#000000;fill-opacity:1;stroke:none" />
  </g>
</svg>
