<?xml version="1.0" encoding="utf-8"?>
<!-- Generator: Adobe Illustrator 17.0.0, SVG Export Plug-In . SVG Version: 6.00 Build 0)  -->
<!DOCTYPE svg PUBLIC "-//W3C//DTD SVG 1.1//EN" "http://www.w3.org/Graphics/SVG/1.1/DTD/svg11.dtd">
<svg version="1.1" id="Layer_1" xmlns="http://www.w3.org/2000/svg" xmlns:xlink="http://www.w3.org/1999/xlink" x="0px" y="0px"
	 width="25.45px" height="21.804px" viewBox="0 0 25.45 21.804" enable-background="new 0 0 25.45 21.804" xml:space="preserve">
<g id="new_x5F_window">
	<path fill="#CCCCCC" d="M16,17.504v1.3c0,0.5-0.5,1-1,1H3c-0.5,0-1-0.5-1-1v-12c0-0.5,0.5-1,1-1h3.1c1-0.8,2.1-1.5,3.4-2H4
		c-2.2,0-4,1.8-4,4v10c0,2.2,1.8,4,4,4h10c2.2,0,4-1.8,4-4v-1.8L16,17.504z"/>
	<path fill="#CCCCCC" d="M25.3,7.504l-9.9-7.4c-0.2-0.2-0.4-0.1-0.4,0.2v3.7c0,0,0,0,0,0.1v0.4c-2.1,0.2-10.8,1.4-11,10.3
		c1.8-4.3,8.1-4.3,11-4.2v0.4v0.1v4.2c0,0.3,0.2,0.4,0.4,0.2l9.9-7.4C25.5,7.904,25.5,7.704,25.3,7.504z"/>
</g>
</svg>
