<?xml version="1.0" encoding="utf-8"?>
<!-- Generator: Adobe Illustrator 17.0.0, SVG Export Plug-In . SVG Version: 6.00 Build 0)  -->
<!DOCTYPE svg PUBLIC "-//W3C//DTD SVG 1.1//EN" "http://www.w3.org/Graphics/SVG/1.1/DTD/svg11.dtd">
<svg version="1.1" id="Layer_1" xmlns="http://www.w3.org/2000/svg" xmlns:xlink="http://www.w3.org/1999/xlink" x="0px" y="0px"
	 width="20px" height="28px" viewBox="0 0 20 28" enable-background="new 0 0 20 28" xml:space="preserve">
<g id="bin">
	<path fill="#CCCCCC" d="M19.5,4H14V2c0-1.1-0.9-2-2-2H8C6.9,0,6,0.9,6,2v2H0.5C0.2,4,0,4.2,0,4.5v1C0,5.8,0.2,6,0.5,6h19
		C19.8,6,20,5.8,20,5.5v-1C20,4.2,19.8,4,19.5,4z M8,4L8,4V2h4v2H8z"/>
	<path fill="#CCCCCC" d="M18.3,7H1.5C1.1,7,1,7.2,1,7.5v20.2c0,0,0.1,0.3,0.5,0.3h16.8c0.4,0,0.7-0.2,0.7-0.5V7.4
		C19,7.1,18.7,7,18.3,7z M6,24.5C6,24.8,5.8,25,5.5,25h-1C4.2,25,4,24.8,4,24.5v-14C4,10.2,4.2,10,4.5,10h1C5.8,10,6,10.2,6,10.5
		V24.5z M11,24.5c0,0.3-0.2,0.5-0.5,0.5h-1C9.2,25,9,24.8,9,24.5v-14C9,10.2,9.2,10,9.5,10h1c0.3,0,0.5,0.2,0.5,0.5V24.5z M16,24.5
		c0,0.3-0.2,0.5-0.5,0.5h-1c-0.3,0-0.5-0.2-0.5-0.5v-14c0-0.3,0.2-0.5,0.5-0.5h1c0.3,0,0.5,0.2,0.5,0.5V24.5z"/>
	<path opacity="0.3" fill="#CCCCCC" enable-background="new    " d="M6,24.5C6,24.8,5.8,25,5.5,25h-1C4.2,25,4,24.8,4,24.5v-14
		C4,10.2,4.2,10,4.5,10h1C5.8,10,6,10.2,6,10.5V24.5z M11,24.5c0,0.3-0.2,0.5-0.5,0.5h-1C9.2,25,9,24.8,9,24.5v-14
		C9,10.2,9.2,10,9.5,10h1c0.3,0,0.5,0.2,0.5,0.5V24.5z M16,24.5c0,0.3-0.2,0.5-0.5,0.5h-1c-0.3,0-0.5-0.2-0.5-0.5v-14
		c0-0.3,0.2-0.5,0.5-0.5h1c0.3,0,0.5,0.2,0.5,0.5V24.5z"/>
</g>
</svg>
