<?xml version="1.0" encoding="UTF-8" standalone="no"?>
<svg
   xmlns:dc="http://purl.org/dc/elements/1.1/"
   xmlns:cc="http://creativecommons.org/ns#"
   xmlns:rdf="http://www.w3.org/1999/02/22-rdf-syntax-ns#"
   xmlns:svg="http://www.w3.org/2000/svg"
   xmlns="http://www.w3.org/2000/svg"
   xmlns:sodipodi="http://sodipodi.sourceforge.net/DTD/sodipodi-0.dtd"
   xmlns:inkscape="http://www.inkscape.org/namespaces/inkscape"
   version="1.1"
   width="49.583401"
   height="60.333298"
   viewBox="0 0 49.583401 60.333298"
   enable-background="new 0 0 76.00 76.00"
   xml:space="preserve"
   id="svg2"
   inkscape:version="0.48.2 r9819"
   sodipodi:docname="new.svg"><metadata
   id="metadata10"><rdf:RDF><cc:Work
       rdf:about=""><dc:format>image/svg+xml</dc:format><dc:type
         rdf:resource="http://purl.org/dc/dcmitype/StillImage" /></cc:Work></rdf:RDF></metadata><defs
   id="defs8" /><sodipodi:namedview
   pagecolor="#ffffff"
   bordercolor="#666666"
   borderopacity="1"
   objecttolerance="10"
   gridtolerance="10"
   guidetolerance="10"
   inkscape:pageopacity="0"
   inkscape:pageshadow="2"
   inkscape:window-width="993"
   inkscape:window-height="645"
   id="namedview6"
   showgrid="false"
   fit-margin-top="8"
   fit-margin-left="5"
   fit-margin-right="5"
   fit-margin-bottom="8"
   inkscape:zoom="3.1052632"
   inkscape:cx="22.4167"
   inkscape:cy="31.749998"
   inkscape:window-x="0"
   inkscape:window-y="0"
   inkscape:window-maximized="0"
   inkscape:current-layer="svg2" />
	<path
   d="m 36.2326,32.5833 5.1901,3.0281 -6.3832,7.6 0,0.1188 9.5439,-1.9 0,5.9969 -9.6036,-1.6032 0,0.1188 6.4429,7.3625 -5.2498,3.0281 -3.46,-9.1438 -0.1193,0 -3.4004,9.1438 -5.1304,-3.0281 6.3832,-7.4219 -0.0597,-0.1187 -9.3659,1.6625 0,-5.9969 9.3063,1.9 0,-0.1188 -6.2639,-7.5406 5.3094,-3.0875 3.281,9.2031 0.1194,0 3.46,-9.2031 z M 5,12 27.9584,12 39.8334,23.875 39.8333,31.3958 36.6667,31 l 0,-3.1667 -12.6667,0 0,-12.6667 -15.8333,10e-5 0,34.8333 14.6458,0 -0.3958,3.1666 L 5,53.1666 5,12 z m 22.1667,3.9583 0,8.7083 8.7083,0 -8.7083,-8.7083 z"
   id="path4"
   style="fill:#cccccc;fill-opacity:1;stroke-width:0.2;stroke-linejoin:round"
   inkscape:connector-curvature="0" />
</svg>
