<?xml version="1.0" encoding="UTF-8" standalone="no"?>
<svg
   xmlns:dc="http://purl.org/dc/elements/1.1/"
   xmlns:cc="http://creativecommons.org/ns#"
   xmlns:rdf="http://www.w3.org/1999/02/22-rdf-syntax-ns#"
   xmlns:svg="http://www.w3.org/2000/svg"
   xmlns="http://www.w3.org/2000/svg"
   xmlns:sodipodi="http://sodipodi.sourceforge.net/DTD/sodipodi-0.dtd"
   xmlns:inkscape="http://www.inkscape.org/namespaces/inkscape"
   version="1.1"
   width="42.415874"
   height="44.333298"
   viewBox="0 0 42.415875 44.333299"
   enable-background="new 0 0 76.00 76.00"
   xml:space="preserve"
   id="svg2"
   inkscape:version="0.48.2 r9819"
   sodipodi:docname="radar.svg"><metadata
   id="metadata10"><rdf:RDF><cc:Work
       rdf:about=""><dc:format>image/svg+xml</dc:format><dc:type
         rdf:resource="http://purl.org/dc/dcmitype/StillImage" /></cc:Work></rdf:RDF></metadata><defs
   id="defs8" /><sodipodi:namedview
   pagecolor="#ffffff"
   bordercolor="#666666"
   borderopacity="1"
   objecttolerance="10"
   gridtolerance="10"
   guidetolerance="10"
   inkscape:pageopacity="0"
   inkscape:pageshadow="2"
   inkscape:window-width="640"
   inkscape:window-height="480"
   id="namedview6"
   showgrid="false"
   height="1488.19px"
   fit-margin-top="0"
   fit-margin-left="0"
   fit-margin-right="0"
   fit-margin-bottom="0"
   inkscape:zoom="3.1052632"
   inkscape:cx="21.832575"
   inkscape:cy="22.166702"
   inkscape:window-x="0"
   inkscape:window-y="0"
   inkscape:window-maximized="0"
   inkscape:current-layer="svg2" />
	<path
   d="m 26.856075,40.5543 c -2.3244,2.5534 -7.6392,2.7532 -12.9402,0.5161 l 0,3.2629 -7.9166006,0 0,-8.8279 c -6.28010002,-6.7938 -7.7868,-16.6019 -3.774,-19.582 l 9.9477006,9.9478 5.1488,-3.6777 c -0.2419,-0.5698 -0.3757,-1.1965 -0.3757,-1.8545 0,-2.6233 2.1267,-4.75 4.75,-4.75 2.6234,0 4.75,2.1267 4.75,4.75 0,2.6234 -2.1266,4.75 -4.75,4.75 -0.7948,0 -1.5441,-0.1952 -2.2024,-0.5403 l -3.6013,5.0418 10.9637,10.9638 z m -5.0235,-32.6377 c 6.9956,0 12.6667,5.6711 12.6667,12.6667 0,2.5841 -0.7739,4.9875 -2.1024,6.991 0.3382,-1.217 0.519,-2.4996 0.519,-3.8244 0,-7.87 -6.3799,-14.25 -14.25,-14.25 -1.3248,0 -2.6073,0.1808 -3.8244,0.5191 2.0036,-1.3286 4.407,-2.1024 6.9911,-2.1024 z M 24.051575,0 c 10.1424,0 18.3643,8.6787 18.3643,19.3845 0,3.9546 -1.1219,7.6326 -3.048,10.6988 0.4904,-1.8625 0.7525,-3.8253 0.7525,-5.8527 0,-12.044 -9.2497,-21.8076 -20.6598,-21.8076 -1.9207,0 -3.7802,0.2767 -5.5447,0.7943 C 16.820675,1.1842 20.305175,0 24.051575,0 z"
   id="path4"
   inkscape:connector-curvature="0"
   style="fill:#000000;fill-opacity:1;stroke-width:0.2;stroke-linejoin:round" />
</svg>