<?xml version="1.0" encoding="UTF-8" standalone="no"?>
<svg
   xmlns:dc="http://purl.org/dc/elements/1.1/"
   xmlns:cc="http://creativecommons.org/ns#"
   xmlns:rdf="http://www.w3.org/1999/02/22-rdf-syntax-ns#"
   xmlns:svg="http://www.w3.org/2000/svg"
   xmlns="http://www.w3.org/2000/svg"
   xmlns:sodipodi="http://sodipodi.sourceforge.net/DTD/sodipodi-0.dtd"
   xmlns:inkscape="http://www.inkscape.org/namespaces/inkscape"
   version="1.1"
   width="31.113199"
   height="31.1131"
   viewBox="0 0 31.113199 31.1131"
   enable-background="new 0 0 76.00 76.00"
   xml:space="preserve"
   id="svg2987"
   inkscape:version="0.48.2 r9819"
   sodipodi:docname="settings.svg"><metadata
   id="metadata2997"><rdf:RDF><cc:Work
       rdf:about=""><dc:format>image/svg+xml</dc:format><dc:type
         rdf:resource="http://purl.org/dc/dcmitype/StillImage" /></cc:Work></rdf:RDF></metadata><defs
   id="defs2995" /><sodipodi:namedview
   pagecolor="#ffffff"
   bordercolor="#666666"
   borderopacity="1"
   objecttolerance="10"
   gridtolerance="10"
   guidetolerance="10"
   inkscape:pageopacity="0"
   inkscape:pageshadow="2"
   inkscape:window-width="640"
   inkscape:window-height="480"
   id="namedview2993"
   showgrid="false"
   fit-margin-top="0"
   fit-margin-left="0"
   fit-margin-right="0"
   fit-margin-bottom="0"
   inkscape:zoom="3.1052632"
   inkscape:cx="15.5566"
   inkscape:cy="15.5565"
   inkscape:window-x="0"
   inkscape:window-y="0"
   inkscape:window-maximized="0"
   inkscape:current-layer="svg2987" />
	<ellipse
   cx="38"
   cy="38"
   rx="3.1666701"
   ry="3.1666701"
   id="ellipse2989"
   sodipodi:cx="38"
   sodipodi:cy="38"
   sodipodi:rx="3.1666701"
   sodipodi:ry="3.1666701"
   style="fill:#000000;fill-opacity:1;stroke-width:0.2;stroke-linejoin:round"
   transform="translate(-22.4434,-22.4434)" />
	<path
   d="m 16.6492,5.3507 5.0973,-4.3718 c 0.9569,0.4068 1.8655,0.9051 2.7149,1.4839 l -0.9156,6.6497 6.6958,0.513 c 0.383,0.9473 0.677,1.9401 0.8716,2.9681 l -5.3507,4.0556 4.3718,5.0973 c -0.4068,0.9569 -0.9051,1.8655 -1.4839,2.7149 l -6.6497,-0.9156 -0.513,6.6958 c -0.9473,0.383 -1.9402,0.6769 -2.9681,0.8715 L 14.464,25.7625 9.3667,30.1343 C 8.4098,29.7275 7.5012,29.2292 6.6518,28.6504 L 7.5674,22.0007 0.8716,21.4876 C 0.4886,20.5403 0.1946,19.5475 0,18.5196 L 5.3507,14.464 0.9789,9.3667 C 1.3857,8.4098 1.884,7.5012 2.4628,6.6518 L 9.1125,7.5674 9.6255,0.8716 C 10.5728,0.4886 11.5657,0.1946 12.5936,0 l 4.0556,5.3507 z m -1.0926,3.8726 c -3.4978,0 -6.3333,2.8355 -6.3333,6.3333 0,3.4978 2.8355,6.3333 6.3333,6.3333 3.4978,0 6.3333,-2.8355 6.3333,-6.3333 0,-3.4978 -2.8355,-6.3333 -6.3333,-6.3333 z"
   id="path2991"
   inkscape:connector-curvature="0"
   style="fill:#000000;fill-opacity:1;stroke-width:0.2;stroke-linejoin:round" />
</svg>