<?xml version="1.0" encoding="UTF-8" standalone="no"?>
<svg
   xmlns:dc="http://purl.org/dc/elements/1.1/"
   xmlns:cc="http://creativecommons.org/ns#"
   xmlns:rdf="http://www.w3.org/1999/02/22-rdf-syntax-ns#"
   xmlns:svg="http://www.w3.org/2000/svg"
   xmlns="http://www.w3.org/2000/svg"
   xmlns:sodipodi="http://sodipodi.sourceforge.net/DTD/sodipodi-0.dtd"
   xmlns:inkscape="http://www.inkscape.org/namespaces/inkscape"
   version="1.1"
   width="37.708302"
   height="45.625"
   viewBox="0 0 37.708302 45.625"
   enable-background="new 0 0 76.00 76.00"
   xml:space="preserve"
   id="svg2"
   inkscape:version="0.48.2 r9819"
   sodipodi:docname="trash.svg"><metadata
   id="metadata10"><rdf:RDF><cc:Work
       rdf:about=""><dc:format>image/svg+xml</dc:format><dc:type
         rdf:resource="http://purl.org/dc/dcmitype/StillImage" /></cc:Work></rdf:RDF></metadata><defs
   id="defs8" /><sodipodi:namedview
   pagecolor="#ffffff"
   bordercolor="#666666"
   borderopacity="1"
   objecttolerance="10"
   gridtolerance="10"
   guidetolerance="10"
   inkscape:pageopacity="0"
   inkscape:pageshadow="2"
   inkscape:window-width="640"
   inkscape:window-height="480"
   id="namedview6"
   showgrid="false"
   fit-margin-top="5"
   fit-margin-right="5"
   fit-margin-left="5"
   fit-margin-bottom="5"
   inkscape:zoom="3.1052632"
   inkscape:cx="18.8542"
   inkscape:cy="22.4167"
   inkscape:window-x="0"
   inkscape:window-y="0"
   inkscape:window-maximized="0"
   inkscape:current-layer="svg2" />
	<path
   d="m 6.1875,8.9583 25.3334,0 c 0.8744,0 1.1874,3.5625 1.1874,3.5625 L 5,12.5208 c 0,0 0.3131,-3.5625 1.1875,-3.5625 z M 16.4792,5 l 4.75,0 c 0.4372,0 1.5833,1.1461 1.5833,1.5833 0,0.4372 -1.1461,1.5834 -1.5833,1.5834 l -4.75,0 C 16.042,8.1667 14.8958,7.0205 14.8958,6.5833 14.8958,6.1461 16.042,5 16.4792,5 z m -7.9167,8.7083 20.5833,0 c 0.8745,0 1.5834,0.7089 1.5834,1.5834 l -1.5834,23.75 c 0,0.8744 -0.7088,1.5833 -1.5833,1.5833 l -17.4166,0 c -0.8745,0 -1.5834,-0.7089 -1.5834,-1.5833 l -1.5833,-23.75 c 0,-0.8745 0.7089,-1.5834 1.5833,-1.5834 z m 2.375,3.1667 0.3959,20.5833 2.7708,0 -0.3958,-20.5833 -2.7709,0 z m 6.3334,0 0,20.5833 3.1666,0 0,-20.5833 -3.1666,0 z m 6.7291,0 -0.3958,20.5833 2.7708,0 0.3959,-20.5833 -2.7709,0 z"
   id="path4"
   inkscape:connector-curvature="0"
   style="fill:#cccccc;fill-opacity:1;stroke-width:0.20000000000000001;stroke-linejoin:round" />
</svg>
